<svg width="433" height="134" viewBox="0 0 433 134" fill="none" xmlns="http://www.w3.org/2000/svg">
<path fill-rule="evenodd" clip-rule="evenodd" d="M45.2962 101.839C41.8747 100.011 37.594 101.274 35.7551 104.648L31.5951 112.258C29.7411 115.632 31.0223 119.838 34.4438 121.666C37.8653 123.494 42.1309 122.23 43.9848 118.857L48.1449 111.247C49.9989 107.873 48.7177 103.652 45.2962 101.839Z" fill="#4098C2"/>
<path fill-rule="evenodd" clip-rule="evenodd" d="M57.1598 15.7865C57.2351 18.3577 58.7122 20.5573 60.8526 21.7017C61.9077 22.2665 63.1135 22.5637 64.3947 22.534C68.2834 22.4151 71.3432 19.2346 71.2377 15.4001L70.9814 6.765C70.8759 2.91564 67.6353 -0.101424 63.7465 0.00261221C59.8578 0.106649 56.798 3.30206 56.9035 7.13656L57.1598 15.7716L57.1598 15.7865Z" fill="#4098C2"/>
<path fill-rule="evenodd" clip-rule="evenodd" d="M74.083 113.625C73.9775 109.79 70.7218 106.773 66.8481 106.877C62.9593 106.996 59.8996 110.177 60.0051 114.011L60.2613 122.646C60.3367 125.217 61.8138 127.417 63.9541 128.561C65.0092 129.126 66.215 129.423 67.4962 129.379C71.385 129.275 74.4447 126.079 74.3392 122.245L74.083 113.61L74.083 113.625Z" fill="#4098C2"/>
<path fill-rule="evenodd" clip-rule="evenodd" d="M28.8819 19.1449L33.4791 26.5018C34.1574 27.5719 35.0768 28.4042 36.1168 28.9689C38.2572 30.1133 40.9401 30.1282 43.1558 28.7757C46.4718 26.7693 47.4967 22.4889 45.4619 19.2192L40.8648 11.8623C38.8299 8.5926 34.489 7.58195 31.173 9.58838C27.857 11.5948 26.8321 15.8752 28.8669 19.1449L28.8819 19.1449Z" fill="#4098C2"/>
<path fill-rule="evenodd" clip-rule="evenodd" d="M27.9604 44.6634C29.8143 41.2897 28.5331 37.0688 25.1116 35.2555L17.3944 31.1535C13.9729 29.3255 9.70732 30.5888 7.85337 33.9625C5.99943 37.3363 7.28061 41.5423 10.7021 43.3704L18.4193 47.4724C21.8408 49.3005 26.1064 48.0372 27.9604 44.6634Z" fill="#4098C2"/>
<path fill-rule="evenodd" clip-rule="evenodd" d="M22.8378 65.9168C22.7323 62.0823 19.4917 59.0652 15.6029 59.1692L6.84566 59.4219C2.9569 59.5259 -0.102861 62.7213 0.002648 66.5558C0.0780113 69.127 1.55514 71.3267 3.69546 72.4711C4.75055 73.0358 5.95637 73.3331 7.23755 73.3034L15.9948 73.0507C19.8836 72.9467 22.9433 69.7513 22.8378 65.9168Z" fill="#4098C2"/>
<path fill-rule="evenodd" clip-rule="evenodd" d="M29.1822 86.8435C27.1474 83.5738 22.8064 82.5632 19.4904 84.5696L12.0294 89.1026C8.71345 91.109 7.6885 95.3894 9.72332 98.6591C10.4016 99.7292 11.321 100.562 12.361 101.126C14.5014 102.271 17.1843 102.286 19.4 100.933L26.861 96.4C30.177 94.3936 31.2019 90.1133 29.1671 86.8435L29.1822 86.8435Z" fill="#4098C2"/>
<path fill-rule="evenodd" clip-rule="evenodd" d="M54.3126 37.3065L97.0438 37.3065C96.9533 38.7927 96.682 40.3384 96.2148 41.9733C95.7475 43.6081 94.9788 45.0795 93.8785 46.4171C92.7933 47.7547 91.3312 48.8546 89.5074 49.7166C87.6836 50.5786 85.3926 51.0096 82.6343 51.0096L54.9306 51.0096L54.8703 58.7083L87.759 58.7083L87.759 71.4454L54.8703 71.4454L54.8402 78.9212L82.574 79.0698C84.4731 79.0252 86.2819 79.3819 88.0152 80.1399C89.7486 80.8979 91.3011 81.9234 92.6576 83.2164C94.0142 84.4946 95.0843 85.966 95.8832 87.6157C96.682 89.2654 97.0438 90.9597 96.9986 92.6838L54.2674 92.6838C52.3683 92.6838 50.5897 92.3271 48.9317 91.6137C47.2737 90.9003 45.8116 89.9342 44.5606 88.7304C43.2945 87.5265 42.2846 86.0849 41.5461 84.4351C40.8075 82.7854 40.4307 80.987 40.4457 79.0698L40.506 51.0096C40.506 49.0775 40.8678 47.2791 41.5762 45.5997C42.2846 43.9202 43.2493 42.4786 44.4852 41.2747C45.7212 40.0709 47.1832 39.1048 48.8563 38.3914C50.5294 37.678 52.3381 37.3213 54.2976 37.3213L54.3126 37.3065ZM156.928 37.1578C157.41 43.8757 156.898 49.449 155.39 53.8929C153.868 58.3368 151.682 61.874 148.819 64.5195C145.955 67.165 142.594 69.0228 138.735 70.1078C134.876 71.1927 130.837 71.7426 126.632 71.7426L117.241 71.7426L117.241 78.8469L142.232 78.8469C144.839 78.8469 147.07 79.2779 148.924 80.1399C150.778 81.0019 152.285 82.1166 153.461 83.4691C154.622 84.8216 155.481 86.3227 156.023 87.9427C156.566 89.5775 156.837 91.1529 156.867 92.6838C148.02 92.7284 138.901 92.7284 129.495 92.6838C120.105 92.6392 111.001 92.6392 102.199 92.6838C101.505 87.0509 101.686 82.0571 102.741 77.6876C103.796 73.3181 105.59 69.647 108.152 66.6597C110.7 63.6724 113.986 61.3984 117.98 59.8527C121.989 58.2922 126.586 57.5193 131.801 57.5193L140.061 57.5193L140.061 51.1582L115.146 51.2325C113.443 51.2325 111.815 50.8907 110.263 50.1922C108.71 49.4936 107.354 48.5573 106.193 47.3386C105.032 46.1347 104.098 44.6782 103.389 42.969C102.681 41.2599 102.334 39.3723 102.319 37.3065L156.958 37.1578L156.928 37.1578Z" fill="#022232"/>
<path fill-rule="evenodd" clip-rule="evenodd" d="M188.385 37.1578L245.525 37.1578C245.51 39.3278 245.103 41.2747 244.305 42.969C243.506 44.6782 242.466 46.1199 241.169 47.294C239.873 48.483 238.381 49.3747 236.693 49.9989C235.005 50.6232 233.256 50.9204 231.448 50.9204L224.167 50.9204L224.122 92.6837L209.26 92.6837L209.306 50.9204L202.026 50.9204C200.126 50.9204 198.333 50.6529 196.66 50.103C194.987 49.5531 193.525 48.7208 192.274 47.5912C191.022 46.4617 190.058 45.02 189.38 43.296C188.701 41.572 188.37 39.521 188.4 37.1578L188.385 37.1578ZM251.479 50.861C251.434 48.8843 251.781 47.0562 252.534 45.3767C253.288 43.6973 254.343 42.2408 255.699 41.0072C257.056 39.7736 258.654 38.8224 260.493 38.1536C262.332 37.4848 264.291 37.1578 266.401 37.1578L266.326 78.7725C266.296 81.6856 265.843 84.0487 264.984 85.847C264.125 87.6454 262.995 89.0573 261.608 90.068C260.206 91.0786 258.624 91.7771 256.875 92.1487C255.112 92.5203 253.303 92.6986 251.449 92.6986L251.479 50.861ZM299.682 37.2322C301.536 37.2322 303.54 37.2619 305.711 37.3362C307.881 37.4105 309.976 37.7078 312.026 38.2279C314.076 38.7481 315.93 39.5507 317.588 40.6356C319.261 41.7206 320.527 43.2812 321.386 45.3024C322.336 43.2812 323.662 41.7206 325.366 40.6356C327.069 39.5507 328.953 38.7481 330.988 38.2279C333.023 37.7078 335.133 37.4105 337.318 37.3362C339.504 37.2619 341.524 37.2322 343.377 37.2322C345.081 37.2322 346.859 37.2767 348.728 37.3808C350.597 37.4848 352.436 37.7078 354.215 38.0793C356.008 38.4509 357.727 39.0157 359.355 39.7885C360.997 40.5465 362.429 41.6314 363.68 43.0136C365.595 45.0349 366.876 47.4129 367.539 50.1624C368.202 52.8971 368.519 55.6021 368.489 58.2625L368.489 92.6838C366.394 92.6838 364.434 92.3717 362.595 91.7623C360.756 91.1381 359.144 90.2463 357.757 89.0573C356.37 87.8683 355.285 86.4267 354.516 84.7324C353.732 83.0232 353.386 81.0911 353.446 78.9212L353.491 61.8146C353.476 59.9865 353.325 58.3665 353.084 56.9248C352.828 55.498 352.331 54.2645 351.577 53.2538C350.823 52.2432 349.753 51.4703 348.382 50.9204C347.01 50.3705 345.216 50.103 343.016 50.103L340.242 50.103C332.691 50.103 328.893 54.2942 328.878 62.6914L328.847 92.6838L313.91 92.6838L313.94 62.6914C313.956 54.2942 310.157 50.103 302.545 50.103L299.847 50.103C297.752 50.103 296.019 50.3557 294.678 50.8461C293.336 51.3366 292.266 52.0648 291.467 53.0309C290.668 53.9969 290.095 55.2008 289.779 56.6573C289.462 58.1138 289.297 59.823 289.297 61.7997L289.251 78.9063C289.281 81.0762 288.92 83.0083 288.136 84.7175C287.367 86.4267 286.297 87.8683 284.956 89.0425C283.614 90.2315 282.032 91.1232 280.223 91.7474C278.399 92.3568 276.44 92.6689 274.344 92.6689L274.344 58.2476C274.36 55.5872 274.691 52.8823 275.339 50.1476C275.987 47.4129 277.269 45.0201 279.213 42.9988C280.464 41.6166 281.911 40.5465 283.524 39.7736C285.137 39.0156 286.855 38.436 288.664 38.0645C290.472 37.6929 292.326 37.4551 294.21 37.3659C296.094 37.2619 297.918 37.2173 299.667 37.2173L299.682 37.2322ZM389.5 37.3065L432.231 37.3065C432.141 38.7927 431.869 40.3384 431.402 41.9733C430.935 43.6081 430.166 45.0795 429.066 46.4171C427.966 47.7547 426.519 48.8546 424.695 49.7166C422.871 50.5786 420.58 51.0096 417.822 51.0096L390.118 51.0096L390.058 58.7083L422.946 58.7083L422.946 71.4454L390.058 71.4454L390.028 78.9212L417.761 79.0698C419.66 79.0252 421.469 79.3819 423.203 80.1399C424.936 80.8979 426.488 81.9234 427.845 83.2164C429.201 84.4946 430.272 85.966 431.07 87.6157C431.869 89.2654 432.231 90.9597 432.186 92.6838L389.455 92.6838C387.556 92.6838 385.777 92.3271 384.119 91.6137C382.461 90.9003 380.999 89.9342 379.748 88.7304C378.482 87.5265 377.472 86.0849 376.733 84.4351C375.995 82.7854 375.618 80.9871 375.633 79.0698L375.693 51.0096C375.693 49.0775 376.055 47.2791 376.764 45.5997C377.472 43.9202 378.437 42.4786 379.673 41.2747C380.909 40.0709 382.371 39.1048 384.044 38.3914C385.717 37.678 387.54 37.3213 389.485 37.3213L389.5 37.3065Z" fill="#4098C2"/>
<path fill-rule="evenodd" clip-rule="evenodd" d="M100.252 128.354C100.252 128.726 100.056 128.919 99.6792 128.919L83.2952 128.919C82.9184 128.919 82.7224 128.726 82.7224 128.354L82.7224 111.694L81.4563 111.515C81.0795 111.471 80.9137 111.263 80.9589 110.906L81.4111 107.74C81.4563 107.369 81.6824 107.205 82.0592 107.25L85.0738 107.666L94.2832 107.666C95.9412 107.666 97.343 108.246 98.5036 109.405C99.6642 110.564 100.237 111.946 100.237 113.551L100.237 128.354L100.252 128.354ZM95.8658 124.594L95.8658 113.566C95.8658 113.135 95.7151 112.779 95.4137 112.481C95.1122 112.184 94.7354 112.035 94.3134 112.035L87.1387 112.035L87.1387 124.609L95.8809 124.609L95.8658 124.594Z" fill="#022232"/>
<path fill-rule="evenodd" clip-rule="evenodd" d="M107.892 119.496C107.892 119.868 107.696 120.061 107.319 120.061L104.079 120.061C103.702 120.061 103.506 119.868 103.506 119.496L103.506 111.322L103.054 108.349C102.978 107.978 103.144 107.755 103.551 107.71L106.762 107.264C107.139 107.22 107.365 107.383 107.41 107.755L107.907 111.337L107.907 119.511L107.892 119.496Z" fill="#022232"/>
<path fill-rule="evenodd" clip-rule="evenodd" d="M128.241 118.486C128.241 121.473 127.518 123.732 126.071 125.263C125.001 126.392 122.86 127.611 119.65 128.919C119.318 129.038 119.077 128.949 118.926 128.622L117.856 126.244C117.705 125.917 117.811 125.679 118.158 125.53C120.75 124.445 122.393 123.42 123.086 122.439C123.614 121.666 123.885 120.343 123.885 118.486L123.885 113.551C123.885 113.12 123.735 112.764 123.418 112.466C123.117 112.169 122.74 112.02 122.303 112.02L114.555 112.02L110.953 111.53C110.576 111.485 110.41 111.277 110.456 110.921L110.908 107.755C110.953 107.383 111.179 107.22 111.556 107.264L114.57 107.681L122.242 107.681C123.9 107.681 125.302 108.245 126.463 109.39C127.623 110.534 128.196 111.916 128.196 113.551L128.196 118.486L128.241 118.486ZM115.671 117.311C115.716 116.94 115.55 116.717 115.173 116.672L111.963 116.227C111.586 116.182 111.36 116.345 111.315 116.717L110.862 120.299L110.862 132.768C110.862 133.14 111.058 133.333 111.435 133.333L114.646 133.333C115.023 133.333 115.218 133.14 115.218 132.768L115.218 120.299L115.671 117.326L115.671 117.311Z" fill="#022232"/>
<path fill-rule="evenodd" clip-rule="evenodd" d="M151.816 113.744L150.294 120.002C148.847 125.947 145.848 128.934 141.326 128.934L135.025 128.934C134.694 128.934 134.498 128.741 134.453 128.369L132.162 111.723L131.167 111.53C130.79 111.456 130.624 111.248 130.669 110.921L131.122 107.755C131.167 107.383 131.393 107.22 131.77 107.264L134.784 107.681L147.084 107.681C148.847 107.681 150.098 107.918 150.867 108.394C151.726 108.944 152.163 109.88 152.163 111.173C152.163 111.902 152.042 112.749 151.816 113.73L151.816 113.744ZM147.596 113.18C147.807 112.407 147.626 112.006 147.099 112.006L136.623 112.006L138.402 124.579L141.326 124.579C143.602 124.579 145.124 123.048 145.893 119.987L147.596 113.18Z" fill="#022232"/>
<path fill-rule="evenodd" clip-rule="evenodd" d="M172.359 122.291C172.359 123.851 171.756 125.293 170.566 126.616C169.45 127.849 168.064 128.682 166.406 129.142L157.347 131.595C156.94 131.713 156.699 131.624 156.623 131.297L155.779 128.087C155.674 127.686 155.779 127.448 156.111 127.374L159.095 126.645L160.587 126.244L159.623 123.257L154.845 108.825C154.724 108.469 154.845 108.246 155.222 108.142L158.296 107.205C158.658 107.101 158.899 107.235 159.02 107.577L164.732 125.129L165.23 124.981C165.908 124.773 166.541 124.371 167.099 123.777C167.657 123.168 167.943 122.558 167.943 121.934L167.943 108.261C167.943 107.889 168.139 107.696 168.516 107.696L171.756 107.696C172.133 107.696 172.329 107.889 172.329 108.261L172.329 122.306L172.359 122.291Z" fill="#022232"/>
<path fill-rule="evenodd" clip-rule="evenodd" d="M192.029 115.885C192.029 118.501 191.2 120.819 189.542 122.855C188.215 124.49 186.241 126.066 183.618 127.596L180.634 129.335C180.302 129.543 180.046 129.454 179.865 129.068L178.448 126.214C178.298 125.917 178.388 125.664 178.72 125.456L181.704 123.717C185.653 121.428 187.628 118.753 187.628 115.692C187.628 114.562 187.386 113.67 186.889 113.001C186.392 112.333 185.743 112.006 184.914 112.006L175.283 112.006C174.951 112.006 174.786 111.812 174.786 111.396L174.786 106.016L174.333 103.044C174.288 102.672 174.454 102.449 174.831 102.405L178.041 101.959C178.418 101.914 178.644 102.078 178.689 102.449L179.202 106.031L179.202 107.696L184.914 107.696C187.175 107.696 188.924 108.394 190.16 109.806C191.396 111.218 192.014 113.254 192.014 115.9L192.029 115.885Z" fill="#022232"/>
<path fill-rule="evenodd" clip-rule="evenodd" d="M230.919 128.354C230.919 128.726 230.723 128.919 230.346 128.919L227.106 128.919C226.729 128.919 226.533 128.726 226.533 128.354L226.533 113.551C226.533 113.105 226.382 112.734 226.096 112.436C225.809 112.154 225.433 112.005 224.965 112.005L218.318 112.005L218.318 124.921C218.318 126.199 218.107 127.135 217.67 127.745C216.932 128.77 215.213 129.29 212.515 129.29L211.294 129.29C210.918 129.29 210.722 129.097 210.722 128.726L210.722 126.467C210.722 126.095 210.918 125.902 211.294 125.902C212.621 125.902 213.42 125.709 213.706 125.337C213.857 125.129 213.932 124.772 213.932 124.237L213.932 111.678L212.666 111.5C212.289 111.455 212.123 111.247 212.169 110.891L212.621 107.725C212.666 107.353 212.892 107.19 213.269 107.235L216.284 107.651L224.95 107.651C226.608 107.651 228.01 108.216 229.171 109.36C230.331 110.504 230.904 111.887 230.904 113.521L230.904 128.324L230.919 128.354Z" fill="#022232"/>
<path fill-rule="evenodd" clip-rule="evenodd" d="M238.592 128.355C238.592 128.726 238.396 128.919 238.019 128.919L234.778 128.919C234.401 128.919 234.206 128.726 234.206 128.355L234.206 111.337L233.753 108.365C233.708 107.993 233.874 107.77 234.251 107.726L237.461 107.28C237.838 107.235 238.064 107.399 238.109 107.77L238.607 111.352L238.607 128.369L238.592 128.355Z" fill="#022232"/>
<path fill-rule="evenodd" clip-rule="evenodd" d="M260.172 128.354C260.172 128.726 259.976 128.919 259.6 128.919L256.359 128.919C255.982 128.919 255.786 128.726 255.786 128.354L255.786 113.551C255.786 113.12 255.635 112.764 255.334 112.466C255.032 112.169 254.656 112.02 254.219 112.02L247.571 112.02L247.571 128.369C247.571 128.741 247.376 128.934 246.999 128.934L243.758 128.934C243.381 128.934 243.185 128.741 243.185 128.369L243.185 111.708L241.919 111.53C241.542 111.485 241.377 111.277 241.422 110.921L241.874 107.755C241.919 107.383 242.145 107.22 242.522 107.264L245.537 107.681L254.203 107.681C255.861 107.681 257.263 108.26 258.424 109.42C259.584 110.579 260.157 111.961 260.157 113.566L260.157 128.369L260.172 128.354Z" fill="#022232"/>
<path fill-rule="evenodd" clip-rule="evenodd" d="M272.772 128.919L263.141 128.919C262.764 128.919 262.568 128.726 262.568 128.354L262.568 125.159C262.568 124.787 262.764 124.594 263.141 124.594L272.38 124.594C273.375 124.594 274.144 123.955 274.717 122.677C275.229 121.547 275.485 120.135 275.485 118.456C275.485 116.776 275.214 115.275 274.686 114.057C274.129 112.704 273.36 112.02 272.38 112.02L266.366 112.02L262.764 111.53C262.387 111.485 262.221 111.277 262.267 110.921L262.719 107.755C262.764 107.383 262.99 107.22 263.367 107.264L266.381 107.681L272.38 107.681C274.958 107.681 276.993 108.795 278.485 111.04C279.811 113.016 280.474 115.454 280.474 118.352C280.474 121.25 279.826 123.643 278.53 125.62C277.098 127.834 275.184 128.934 272.757 128.934L272.772 128.919Z" fill="#022232"/>
<path fill-rule="evenodd" clip-rule="evenodd" d="M287.593 128.355C287.593 128.726 287.397 128.919 287.02 128.919L283.78 128.919C283.403 128.919 283.207 128.726 283.207 128.355L283.207 111.337L282.755 108.365C282.71 107.993 282.875 107.77 283.252 107.726L286.463 107.28C286.84 107.235 287.066 107.399 287.111 107.77L287.608 111.352L287.608 128.369L287.593 128.355Z" fill="#022232"/>
<path fill-rule="evenodd" clip-rule="evenodd" d="M299.995 128.354C299.995 128.726 299.799 128.919 299.422 128.919L290.906 128.919C290.529 128.919 290.333 128.726 290.333 128.354L290.333 125.159C290.333 124.787 290.529 124.594 290.906 124.594L295.609 124.594L295.609 113.566C295.609 112.57 295.021 111.976 293.845 111.798L291.976 111.515C291.6 111.471 291.434 111.262 291.479 110.921L291.931 107.755C291.976 107.383 292.203 107.22 292.579 107.264L293.845 107.458C297.945 108.067 299.995 110.088 299.995 113.566L299.995 128.369L299.995 128.354Z" fill="#022232"/>
<path fill-rule="evenodd" clip-rule="evenodd" d="M339.653 128.354C339.653 128.726 339.458 128.919 339.081 128.919L335.84 128.919C335.463 128.919 335.267 128.726 335.267 128.354L335.267 113.551C335.267 113.105 335.117 112.734 334.83 112.436C334.544 112.154 334.167 112.005 333.7 112.005L327.053 112.005L327.053 124.921C327.053 126.199 326.842 127.135 326.405 127.745C325.666 128.77 323.948 129.29 321.25 129.29L320.029 129.29C319.652 129.29 319.456 129.097 319.456 128.726L319.456 126.467C319.456 126.095 319.652 125.902 320.029 125.902C321.355 125.902 322.154 125.709 322.44 125.337C322.591 125.129 322.667 124.772 322.667 124.237L322.667 111.678L321.4 111.5C321.024 111.455 320.858 111.247 320.903 110.891L321.355 107.725C321.4 107.353 321.627 107.19 322.003 107.235L325.018 107.651L333.685 107.651C335.343 107.651 336.744 108.216 337.905 109.36C339.066 110.504 339.638 111.887 339.638 113.521L339.638 128.324L339.653 128.354Z" fill="#022232"/>
<path fill-rule="evenodd" clip-rule="evenodd" d="M347.326 128.355C347.326 128.726 347.13 128.919 346.753 128.919L343.512 128.919C343.135 128.919 342.939 128.726 342.939 128.355L342.939 111.337L342.487 108.365C342.442 107.993 342.608 107.77 342.985 107.726L346.195 107.28C346.572 107.235 346.798 107.399 346.843 107.77L347.341 111.352L347.341 128.369L347.326 128.355Z" fill="#022232"/>
<path fill-rule="evenodd" clip-rule="evenodd" d="M359.728 128.354C359.728 128.726 359.532 128.919 359.155 128.919L350.639 128.919C350.262 128.919 350.066 128.726 350.066 128.354L350.066 125.159C350.066 124.787 350.262 124.594 350.639 124.594L355.342 124.594L355.342 113.566C355.342 112.57 354.754 111.976 353.578 111.798L351.709 111.515C351.333 111.471 351.167 111.262 351.212 110.921L351.664 107.755C351.709 107.383 351.935 107.22 352.312 107.264L353.578 107.458C357.678 108.067 359.728 110.088 359.728 113.566L359.728 128.369L359.728 128.354Z" fill="#022232"/>
<path fill-rule="evenodd" clip-rule="evenodd" d="M367.37 128.355C367.37 128.726 367.174 128.919 366.797 128.919L363.557 128.919C363.18 128.919 362.984 128.726 362.984 128.355L362.984 111.337L362.532 108.365C362.486 107.993 362.652 107.77 363.029 107.726L366.24 107.28C366.616 107.235 366.842 107.399 366.888 107.77L367.385 111.352L367.385 128.369L367.37 128.355Z" fill="#022232"/>
<path fill-rule="evenodd" clip-rule="evenodd" d="M387.807 128.354C387.807 128.726 387.611 128.919 387.235 128.919L383.994 128.919C383.617 128.919 383.421 128.726 383.421 128.354L383.421 113.551C383.421 113.12 383.271 112.764 382.954 112.466C382.653 112.169 382.276 112.02 381.839 112.02L374.287 112.02L370.685 111.53C370.308 111.485 370.142 111.277 370.187 110.921L370.64 107.755C370.685 107.383 370.911 107.22 371.288 107.264L374.302 107.681L381.824 107.681C383.482 107.681 384.883 108.26 386.044 109.42C387.205 110.579 387.777 111.961 387.777 113.566L387.777 128.369L387.807 128.354Z" fill="#022232"/>
<path fill-rule="evenodd" clip-rule="evenodd" d="M410.692 128.354C410.692 128.726 410.496 128.919 410.119 128.919L406.878 128.919C406.501 128.919 406.305 128.726 406.305 128.354L406.305 113.551C406.305 113.105 406.155 112.734 405.868 112.436C405.582 112.154 405.205 112.005 404.738 112.005L398.091 112.005L398.091 124.921C398.091 126.199 397.88 127.135 397.443 127.745C396.704 128.77 394.986 129.29 392.288 129.29L391.067 129.29C390.69 129.29 390.494 129.097 390.494 128.726L390.494 126.467C390.494 126.095 390.69 125.902 391.067 125.902C392.393 125.902 393.192 125.709 393.479 125.337C393.629 125.129 393.705 124.772 393.705 124.237L393.705 111.678L392.438 111.5C392.062 111.455 391.896 111.247 391.941 110.891L392.393 107.725C392.438 107.353 392.665 107.19 393.041 107.235L396.056 107.651L404.723 107.651C406.381 107.651 407.783 108.216 408.943 109.36C410.104 110.504 410.676 111.887 410.676 113.521L410.676 128.324L410.692 128.354Z" fill="#022232"/>
<path fill-rule="evenodd" clip-rule="evenodd" d="M424.965 128.919L414.73 128.919C414.354 128.919 414.158 128.726 414.158 128.354L414.158 125.159C414.158 124.787 414.354 124.594 414.73 124.594L424.588 124.594C425.583 124.594 426.352 123.955 426.924 122.677C427.437 121.547 427.693 120.135 427.693 118.456C427.693 116.777 427.422 115.275 426.894 114.057C426.336 112.704 425.568 112.021 424.603 112.021L418.951 112.021L418.951 116.539L421.664 116.539C422.041 116.539 422.237 116.732 422.237 117.104L422.237 120.299C422.237 120.671 422.041 120.864 421.664 120.864L417.609 120.864C415.575 120.864 414.55 119.734 414.55 117.46L414.55 111.694L413.283 111.515C412.907 111.471 412.741 111.263 412.786 110.906L413.238 107.74C413.284 107.369 413.51 107.205 413.886 107.25L416.901 107.666L424.573 107.666C427.15 107.666 429.185 108.781 430.692 111.025C432.019 113.002 432.682 115.439 432.682 118.337C432.682 121.235 432.034 123.628 430.738 125.605C429.306 127.819 427.392 128.919 424.965 128.919Z" fill="#022232"/>
</svg>
