<svg width="71" height="48" viewBox="0 0 71 48" fill="none" xmlns="http://www.w3.org/2000/svg">
<g clip-path="url(#clip0_1_1237)">
<path fill-rule="evenodd" clip-rule="evenodd" d="M23.4424 37.9475C22.1937 37.2803 20.6314 37.7414 19.9603 38.9727L18.442 41.7499C17.7654 42.9812 18.233 44.5162 19.4817 45.1834C20.7305 45.8506 22.2872 45.3895 22.9639 44.1582L24.4821 41.381C25.1588 40.1497 24.6912 38.6092 23.4424 37.9475Z" fill="#4098C2"/>
<path fill-rule="evenodd" clip-rule="evenodd" d="M27.7732 6.54125C27.8007 7.47964 28.3398 8.28243 29.1209 8.7001C29.506 8.90622 29.9461 9.0147 30.4137 9.00386C31.8329 8.96046 32.9496 7.79967 32.9111 6.40022L32.8176 3.24874C32.7791 1.84386 31.5964 0.742738 30.1771 0.780708C28.7579 0.818678 27.6412 1.98489 27.6797 3.38434L27.7732 6.53583L27.7732 6.54125Z" fill="#4098C2"/>
<path fill-rule="evenodd" clip-rule="evenodd" d="M33.9504 42.2489C33.9119 40.8494 32.7237 39.7483 31.3099 39.7863C29.8907 39.8297 28.774 40.9905 28.8125 42.3899L28.906 45.5414C28.9335 46.4798 29.4726 47.2826 30.2538 47.7003C30.6388 47.9064 31.0789 48.0149 31.5465 47.9986C32.9657 47.9606 34.0824 46.7944 34.0439 45.395L33.9504 42.2435L33.9504 42.2489Z" fill="#4098C2"/>
<path fill-rule="evenodd" clip-rule="evenodd" d="M17.4533 7.76693L19.1311 10.4519C19.3787 10.8425 19.7142 11.1462 20.0938 11.3524C20.8749 11.77 21.8541 11.7754 22.6628 11.2818C23.873 10.5496 24.2471 8.98739 23.5044 7.79406L21.8266 5.10906C21.084 3.91572 19.4997 3.54687 18.2895 4.27915C17.0793 5.01142 16.7052 6.5736 17.4478 7.76693L17.4533 7.76693Z" fill="#4098C2"/>
<path fill-rule="evenodd" clip-rule="evenodd" d="M17.1173 17.0804C17.7939 15.8491 17.3263 14.3086 16.0776 13.6468L13.2611 12.1497C12.0124 11.4826 10.4556 11.9436 9.77895 13.1749C9.10233 14.4062 9.56992 15.9413 10.8186 16.6085L13.6352 18.1056C14.8839 18.7727 16.4407 18.3117 17.1173 17.0804Z" fill="#4098C2"/>
<path fill-rule="evenodd" clip-rule="evenodd" d="M15.2471 24.8374C15.2086 23.4379 14.0259 22.3368 12.6066 22.3748L9.41053 22.467C7.99127 22.5049 6.87457 23.6712 6.91308 25.0706C6.94058 26.009 7.47968 26.8118 8.26082 27.2295C8.64589 27.4356 9.08597 27.5441 9.55356 27.5332L12.7496 27.441C14.1689 27.403 15.2856 26.2368 15.2471 24.8374Z" fill="#4098C2"/>
<path fill-rule="evenodd" clip-rule="evenodd" d="M17.5623 32.4746C16.8197 31.2812 15.2354 30.9124 14.0252 31.6447L11.3022 33.299C10.092 34.0313 9.71789 35.5935 10.4605 36.7868C10.7081 37.1774 11.0436 37.4811 11.4232 37.6873C12.2043 38.1049 13.1835 38.1104 13.9922 37.6167L16.7152 35.9624C17.9254 35.2301 18.2994 33.6679 17.5568 32.4746L17.5623 32.4746Z" fill="#4098C2"/>
<path fill-rule="evenodd" clip-rule="evenodd" d="M26.5733 13.7605L42.1974 13.7605C42.1644 14.3137 42.0652 14.889 41.8943 15.4976C41.7235 16.1061 41.4424 16.6538 41.0401 17.1517C40.6433 17.6496 40.1087 18.059 39.4419 18.3799C38.775 18.7008 37.9373 18.8612 36.9288 18.8612L26.7993 18.8612L26.7773 21.7269L38.8026 21.7269L38.8026 26.468L26.7773 26.468L26.7662 29.2508L36.9067 29.3061C37.6011 29.2895 38.2625 29.4223 38.8963 29.7044C39.53 29.9865 40.0977 30.3683 40.5937 30.8496C41.0897 31.3253 41.481 31.873 41.7731 32.4871C42.0652 33.1012 42.1974 33.7319 42.1809 34.3736L26.5568 34.3736C25.8624 34.3736 25.2121 34.2408 24.6059 33.9753C23.9996 33.7097 23.4651 33.3501 23.0076 32.902C22.5447 32.4539 22.1754 31.9173 21.9054 31.3032C21.6354 30.6891 21.4976 30.0197 21.5031 29.3061L21.5251 18.8612C21.5251 18.142 21.6574 17.4726 21.9164 16.8475C22.1754 16.2223 22.5282 15.6857 22.9801 15.2376C23.432 14.7895 23.9666 14.4299 24.5783 14.1643C25.19 13.8988 25.8514 13.766 26.5678 13.766L26.5733 13.7605ZM64.0932 13.7051C64.2696 16.2057 64.0822 18.2803 63.5311 19.9345C62.9744 21.5886 62.1753 22.9053 61.1282 23.89C60.0811 24.8747 58.8521 25.5663 57.4412 25.9701C56.0304 26.374 54.5534 26.5787 53.0158 26.5787L49.5824 26.5787L49.5824 29.2231L58.7198 29.2231C59.6733 29.2231 60.4889 29.3835 61.1668 29.7044C61.8446 30.0253 62.3958 30.4402 62.8256 30.9436C63.25 31.4471 63.5641 32.0058 63.7625 32.6088C63.9609 33.2174 64.0601 33.8038 64.0711 34.3736C60.8361 34.3902 57.5019 34.3902 54.0629 34.3736C50.6295 34.357 47.3007 34.357 44.0822 34.3736C43.8287 32.2769 43.8949 30.4181 44.2806 28.7916C44.6664 27.1651 45.3222 25.7986 46.2591 24.6866C47.1905 23.5747 48.3919 22.7282 49.8524 22.1529C51.3184 21.572 52.9993 21.2843 54.9061 21.2843L57.9262 21.2843L57.9262 18.9165L48.8163 18.9442C48.1935 18.9442 47.5983 18.8169 47.0307 18.5569C46.4631 18.2969 45.967 17.9484 45.5427 17.4947C45.1183 17.0466 44.7766 16.5045 44.5176 15.8682C44.2586 15.232 44.1318 14.5294 44.1263 13.7605L64.1042 13.7051L64.0932 13.7051Z" fill="#022232"/>
</g>
<defs>
<clipPath id="clip0_1_1237">
<rect x="0.15625" width="70" height="48" rx="8" fill="white"/>
</clipPath>
</defs>
</svg>
